<?xml version="1.0" encoding="UTF-8" standalone="no"?><!DOCTYPE svg PUBLIC "-//W3C//DTD SVG 1.1//EN" "http://www.w3.org/Graphics/SVG/1.1/DTD/svg11.dtd"><svg xmlns="http://www.w3.org/2000/svg" xmlns:xlink="http://www.w3.org/1999/xlink" version="1.1" width="800" height="600" viewBox="0 0 800 600" xml:space="preserve">
<desc>Created with Fabric.js 6.6.1</desc>
<defs>
</defs>


<g style="" clip-path="url(#CLIPPATH_3)">
<g transform="matrix(0.8658 0.5004 -10.6311 18.3944 431.3927 248.4018)">
<clipPath id="CLIPPATH_3">
	<rect transform="matrix(1 0 0 1 400.5 300.5)" x="-380" y="-280" rx="20" ry="20" width="760" height="560"/>
</clipPath>
		<text xml:space="preserve" font-family="Times New Roman" font-size="64" font-style="normal" font-weight="normal" style="stroke: none; stroke-width: 1; stroke-dasharray: none; stroke-linecap: butt; stroke-dashoffset: 0; stroke-linejoin: miter; stroke-miterlimit: 4; fill: rgb(0,0,0); fill-rule: nonzero; opacity: 1; white-space: pre;"><tspan x="-412.2531" y="20.105">P</tspan><tspan x="-350.4194" y="20.105">l</tspan><tspan x="-306.3981" y="20.105">a</tspan><tspan x="-251.7519" y="20.105">c</tspan><tspan x="-197.1056" y="20.105">e</tspan><tspan x="-142.4594" y="20.105">h</tspan><tspan x="-84.2194" y="20.105">o</tspan><tspan x="-25.9794" y="20.105">l</tspan><tspan x="18.0419" y="20.105">d</tspan><tspan x="76.2819" y="20.105">e</tspan><tspan x="130.9281" y="20.105">r</tspan><tspan x="178.4806" y="20.105" style="white-space: pre; "> </tspan><tspan x="220.7206" y="20.105">T</tspan><tspan x="281.5856" y="20.105">e</tspan><tspan x="336.2319" y="20.105">x</tspan><tspan x="394.4719" y="20.105">t</tspan></text>
</g>
</g>
<g style="" id="curvedText" clip-path="url(#CLIPPATH_4)"  >
<g transform="matrix(0.9483 -1.7802 1.1144 0.5937 541.2609 229.1267)"  >
<clipPath id="CLIPPATH_4" >
	<rect transform="matrix(1 0 0 1 400.5 300.5)" x="-380" y="-280" rx="20" ry="20" width="760" height="560" />
</clipPath>
<defs>
          <path id="textOnPathtad2k6uf7" d="M 0 -100 C 55.22847498307934 -100 100 -55.22847498307937 100 -2.842170943040401e-14 C 100 55.22847498307931 55.228474983079366 99.99999999999997 2.842170943040401e-14 100 C -55.228474983079344 100 -100 55.22847498307934 -100 0 C -100 -55.22847498307934 -55.228474983079344 -100 0 -100" />
        </defs><text
                font-family="Verdana"
                fill="rgb(0,0,0)"
                font-size="32"
                font-style="normal"
                font-weight="normal"
                opacity="1"
                letter-spacing="9.28"
                >
                  <textPath text-anchor="start"
                  dominant-baseline="middle"
                  startOffset="0"
                  href="#textOnPathtad2k6uf7"
                  xlink:href="#textOnPathtad2k6uf7">
                  <tspan dy="0">Placeholder Text</tspan>
                  </textPath>
                </text></g>
</g>
</svg>