<?xml version="1.0" encoding="UTF-8" standalone="no"?><!DOCTYPE svg PUBLIC "-//W3C//DTD SVG 1.1//EN" "http://www.w3.org/Graphics/SVG/1.1/DTD/svg11.dtd"><svg xmlns="http://www.w3.org/2000/svg" xmlns:xlink="http://www.w3.org/1999/xlink" version="1.1" width="587" height="440" viewBox="0 0 587 440" xml:space="preserve">
<desc>Created with Fabric.js 6.6.1</desc>
<defs>
</defs>

<g style="" clip-path="url(#CLIPPATH_2)">
<g transform="matrix(1 0 0 1 340 268)">
<clipPath id="CLIPPATH_2">
	<rect transform="matrix(1.0526 0 0 1.0526 294.2105 220.5263)" x="-260" y="-190" rx="20" ry="20" width="520" height="380"/>
</clipPath>
		<text xml:space="preserve" font-family="Times New Roman" font-size="32" font-style="normal" font-weight="400" style="stroke: none; stroke-width: 1; stroke-dasharray: none; stroke-linecap: butt; stroke-dashoffset: 0; stroke-linejoin: miter; stroke-miterlimit: 4; fill: rgb(0,0,0); fill-rule: nonzero; opacity: 1; white-space: pre;"><tspan x="-280" y="-46.8675">P</tspan><tspan x="-245.5631" y="-46.8675">l</tspan><tspan x="-220.0325" y="-46.8675">a</tspan><tspan x="-189.1894" y="-46.8675">c</tspan><tspan x="-158.3463" y="-46.8675">e</tspan><tspan x="-127.5031" y="-46.8675">h</tspan><tspan x="-94.8631" y="-46.8675">o</tspan><tspan x="-62.2231" y="-46.8675">l</tspan><tspan x="-36.6925" y="-46.8675">d</tspan><tspan x="-4.0525" y="-46.8675">e</tspan><tspan x="26.7906" y="-46.8675">r</tspan><tspan x="54.0869" y="-46.8675" style="white-space: pre; "> </tspan><tspan x="78.7269" y="-46.8675">T</tspan><tspan x="112.6794" y="-46.8675">e</tspan><tspan x="143.5225" y="-46.8675">x</tspan><tspan x="176.1625" y="-46.8675">t</tspan></text>
</g>
</g>
<g style="" clip-path="url(#CLIPPATH_3)">
<g transform="matrix(1 0 0 1 443 300)">
<clipPath id="CLIPPATH_3">
	<rect transform="matrix(1.0526 0 0 1.0526 294.2105 220.5263)" x="-260" y="-190" rx="20" ry="20" width="520" height="380"/>
</clipPath>
		<text xml:space="preserve" font-family="Georgia" font-size="24" font-style="normal" font-weight="700" style="stroke: none; stroke-width: 1; stroke-dasharray: none; stroke-linecap: butt; stroke-dashoffset: 0; stroke-linejoin: miter; stroke-miterlimit: 4; fill: rgb(0,0,0); fill-rule: nonzero; opacity: 1; white-space: pre;"><tspan x="-100" y="-78.9006">P</tspan><tspan x="-59.1719" y="-78.9006">l</tspan><tspan x="-26.9102" y="-78.9006">a</tspan><tspan x="11.3867" y="-78.9006">c</tspan><tspan x="48.1367" y="-78.9006">e</tspan><tspan x="85.8594" y="-78.9006">h</tspan><tspan x="126.1719" y="-78.9006">o</tspan><tspan x="165.4297" y="-78.9006">l</tspan><tspan x="197.6914" y="-78.9006">d</tspan><tspan x="237.6055" y="-78.9006">e</tspan><tspan x="275.3281" y="-78.9006">r</tspan><tspan x="311.8086" y="-78.9006" style="white-space: pre; "> </tspan><tspan x="341.9023" y="-78.9006">T</tspan><tspan x="382.3203" y="-78.9006">e</tspan><tspan x="420.043" y="-78.9006">x</tspan><tspan x="458.1523" y="-78.9006">t</tspan></text>
</g>
</g>
</svg>