<?xml version="1.0" encoding="UTF-8" standalone="no"?><!DOCTYPE svg PUBLIC "-//W3C//DTD SVG 1.1//EN" "http://www.w3.org/Graphics/SVG/1.1/DTD/svg11.dtd"><svg xmlns="http://www.w3.org/2000/svg" xmlns:xlink="http://www.w3.org/1999/xlink" version="1.1" width="570" height="427" viewBox="0 0 570 427" xml:space="preserve">
<desc>Created with Fabric.js 6.6.1</desc>
<defs>
</defs>




<g style="" id="curvedText" clip-path="url(#CLIPPATH_16)"  >
<g transform="matrix(-1.689 0.0418 -0.0418 -1.689 232.5454 214.002)"  >
<clipPath id="CLIPPATH_16" >
	<rect transform="matrix(1 0 0 1 285.5 214)" x="-265" y="-193.5" rx="20" ry="20" width="530" height="387" />
</clipPath>
<defs>
          <path id="textOnPathy2h5dgvxu" d="M 0 -100 C 55.22847498307934 -100 100 -55.22847498307937 100 -2.842170943040401e-14 C 100 55.22847498307931 55.228474983079366 99.99999999999997 2.842170943040401e-14 100 C -55.228474983079344 100 -100 55.22847498307934 -100 0 C -100 -55.22847498307934 -55.228474983079344 -100 0 -100" />
        </defs><text
                font-family="Arial"
                fill="rgb(0,0,0)"
                font-size="16"
                font-style="normal"
                font-weight="400"
                opacity="1"
                letter-spacing="16"
                >
                  <textPath text-anchor="start"
                  dominant-baseline="middle"
                  startOffset="0"
                  href="#textOnPathy2h5dgvxu"
                  xlink:href="#textOnPathy2h5dgvxu">
                  <tspan dy="0">Placeholder Text</tspan>
                  </textPath>
                </text></g>
</g>
<g style="" id="curvedText" clip-path="url(#CLIPPATH_17)"  >
<g transform="matrix(1 0 0 1 237 213.5)"  >
<clipPath id="CLIPPATH_17" >
	<rect transform="matrix(1 0 0 1 285.5 214)" x="-265" y="-193.5" rx="20" ry="20" width="530" height="387" />
</clipPath>
<defs>
          <path id="textOnPath97skr0kqa" d="M 0 -100 C 55.22847498307934 -100 100 -55.22847498307937 100 -2.842170943040401e-14 C 100 55.22847498307931 55.228474983079366 99.99999999999997 2.842170943040401e-14 100 C -55.228474983079344 100 -100 55.22847498307934 -100 0 C -100 -55.22847498307934 -55.228474983079344 -100 0 -100" />
        </defs><text
                font-family="Arial"
                fill="rgb(0,0,0)"
                font-size="16"
                font-style="normal"
                font-weight="400"
                opacity="1"
                letter-spacing="16"
                >
                  <textPath text-anchor="start"
                  dominant-baseline="middle"
                  startOffset="0"
                  href="#textOnPath97skr0kqa"
                  xlink:href="#textOnPath97skr0kqa">
                  <tspan dy="0">Placeholder Text</tspan>
                  </textPath>
                </text></g>
</g>
<g style="" id="curvedText" clip-path="url(#CLIPPATH_18)"  >
<g transform="matrix(-0.4855 0.0726 -0.0726 -0.4855 218.832 215.668)"  >
<clipPath id="CLIPPATH_18" >
	<rect transform="matrix(1 0 0 1 285.5 214)" x="-265" y="-193.5" rx="20" ry="20" width="530" height="387" />
</clipPath>
<defs>
          <path id="textOnPatht10k0yvlo" d="M 0 -100 C 55.22847498307934 -100 100 -55.22847498307937 100 -2.842170943040401e-14 C 100 55.22847498307931 55.228474983079366 99.99999999999997 2.842170943040401e-14 100 C -55.228474983079344 100 -100 55.22847498307934 -100 0 C -100 -55.22847498307934 -55.228474983079344 -100 0 -100" />
        </defs><text
                font-family="Arial"
                fill="rgb(0,0,0)"
                font-size="16"
                font-style="normal"
                font-weight="400"
                opacity="1"
                letter-spacing="16"
                >
                  <textPath text-anchor="start"
                  dominant-baseline="middle"
                  startOffset="0"
                  href="#textOnPatht10k0yvlo"
                  xlink:href="#textOnPatht10k0yvlo">
                  <tspan dy="0">Placeholder Text</tspan>
                  </textPath>
                </text></g>
</g>
</svg>