<svg width="56" height="56" viewBox="0 0 56 56" fill="none" xmlns="http://www.w3.org/2000/svg">
<circle cx="29" cy="40" r="9" stroke="#56876D" stroke-width="2"/>
<rect x="0.5" y="0.5" width="55" height="55" rx="9.5" stroke="black"/>
<path d="M18.627 16.7812V31H15.707V16.7812H18.627ZM23.002 16.7812V19.0762H11.4004V16.7812H23.002Z" fill="black"/>
<path d="M45.9998 4.1875C42.7888 4.1875 40.1873 6.78906 40.1873 10C40.1873 13.2109 42.7888 15.8125 45.9998 15.8125C49.2107 15.8125 51.8123 13.2109 51.8123 10C51.8123 6.78906 49.2107 4.1875 45.9998 4.1875ZM49.3748 10.6562C49.3748 10.8109 49.2482 10.9375 49.0935 10.9375H46.9373V13.0938C46.9373 13.2484 46.8107 13.375 46.656 13.375H45.3435C45.1888 13.375 45.0623 13.2484 45.0623 13.0938V10.9375H42.906C42.7513 10.9375 42.6248 10.8109 42.6248 10.6562V9.34375C42.6248 9.18906 42.7513 9.0625 42.906 9.0625H45.0623V6.90625C45.0623 6.75156 45.1888 6.625 45.3435 6.625H46.656C46.8107 6.625 46.9373 6.75156 46.9373 6.90625V9.0625H49.0935C49.2482 9.0625 49.3748 9.18906 49.3748 9.34375V10.6562Z" fill="#56876D"/>
</svg>
