<svg width="56" height="56" viewBox="0 0 56 56" fill="none" xmlns="http://www.w3.org/2000/svg">
<rect x="0.5" y="0.5" width="55" height="55" rx="9.5" stroke="black"/>
<path d="M16.6719 31.2793C16.6719 31.0254 16.6328 30.7975 16.5547 30.5957C16.4831 30.3874 16.3464 30.1986 16.1445 30.0293C15.9427 29.8535 15.6595 29.681 15.2949 29.5117C14.9303 29.3424 14.4583 29.1667 13.8789 28.9844C13.2344 28.776 12.6224 28.5417 12.043 28.2812C11.4701 28.0208 10.9622 27.7181 10.5195 27.373C10.0833 27.0215 9.73828 26.6146 9.48438 26.1523C9.23698 25.6901 9.11328 25.153 9.11328 24.541C9.11328 23.9486 9.24349 23.4115 9.50391 22.9297C9.76432 22.4414 10.1289 22.0247 10.5977 21.6797C11.0664 21.3281 11.6198 21.0579 12.2578 20.8691C12.9023 20.6803 13.6087 20.5859 14.377 20.5859C15.4251 20.5859 16.3398 20.7747 17.1211 21.1523C17.9023 21.5299 18.5078 22.0475 18.9375 22.7051C19.3737 23.3626 19.5918 24.1146 19.5918 24.9609H16.6816C16.6816 24.5443 16.5938 24.1797 16.418 23.8672C16.2487 23.5482 15.9883 23.2975 15.6367 23.1152C15.2917 22.9329 14.8555 22.8418 14.3281 22.8418C13.8203 22.8418 13.3971 22.9199 13.0586 23.0762C12.7201 23.2259 12.4661 23.431 12.2969 23.6914C12.1276 23.9453 12.043 24.2318 12.043 24.5508C12.043 24.7917 12.1016 25.0098 12.2188 25.2051C12.3424 25.4004 12.5247 25.5827 12.7656 25.752C13.0065 25.9212 13.3027 26.0807 13.6543 26.2305C14.0059 26.3802 14.4128 26.5267 14.875 26.6699C15.6497 26.9043 16.3301 27.168 16.916 27.4609C17.5085 27.7539 18.0033 28.0827 18.4004 28.4473C18.7975 28.8118 19.097 29.2253 19.2988 29.6875C19.5007 30.1497 19.6016 30.6738 19.6016 31.2598C19.6016 31.8783 19.4811 32.4316 19.2402 32.9199C18.9993 33.4082 18.651 33.8216 18.1953 34.1602C17.7396 34.4987 17.196 34.7559 16.5645 34.9316C15.9329 35.1074 15.2266 35.1953 14.4453 35.1953C13.7422 35.1953 13.0488 35.1042 12.3652 34.9219C11.6816 34.7331 11.0599 34.4499 10.5 34.0723C9.94661 33.6947 9.50391 33.2129 9.17188 32.627C8.83984 32.041 8.67383 31.3477 8.67383 30.5469H11.6133C11.6133 30.9896 11.6816 31.3639 11.8184 31.6699C11.9551 31.9759 12.1471 32.2233 12.3945 32.4121C12.6484 32.6009 12.9479 32.7376 13.293 32.8223C13.6445 32.9069 14.0286 32.9492 14.4453 32.9492C14.9531 32.9492 15.3698 32.8776 15.6953 32.7344C16.0273 32.5911 16.2715 32.3926 16.4277 32.1387C16.5905 31.8848 16.6719 31.5983 16.6719 31.2793ZM26.7207 32.0312L30.0703 20.7812H33.332L28.3809 35H26.2324L26.7207 32.0312ZM23.6348 20.7812L26.9746 32.0312L27.4824 35H25.3145L20.3926 20.7812H23.6348ZM45.793 27.5684V33.2031C45.5716 33.4701 45.2298 33.7598 44.7676 34.0723C44.3053 34.3783 43.7096 34.6419 42.9805 34.8633C42.2513 35.0846 41.3691 35.1953 40.334 35.1953C39.416 35.1953 38.5794 35.0456 37.8242 34.7461C37.069 34.4401 36.418 33.9941 35.8711 33.4082C35.3307 32.8223 34.9141 32.1061 34.6211 31.2598C34.3281 30.4069 34.1816 29.4336 34.1816 28.3398V27.4512C34.1816 26.3574 34.3216 25.3841 34.6016 24.5312C34.888 23.6784 35.2949 22.959 35.8223 22.373C36.3496 21.7871 36.9779 21.3411 37.707 21.0352C38.4362 20.7292 39.2467 20.5762 40.1387 20.5762C41.3757 20.5762 42.3913 20.778 43.1855 21.1816C43.9798 21.5788 44.5853 22.1322 45.002 22.8418C45.4251 23.5449 45.6855 24.3522 45.7832 25.2637H42.9414C42.8698 24.7819 42.7331 24.362 42.5312 24.0039C42.3294 23.6458 42.0397 23.3659 41.6621 23.1641C41.291 22.9622 40.8092 22.8613 40.2168 22.8613C39.7285 22.8613 39.2923 22.9622 38.9082 23.1641C38.5306 23.3594 38.2116 23.6491 37.9512 24.0332C37.6908 24.4173 37.4922 24.8926 37.3555 25.459C37.2188 26.0254 37.1504 26.6829 37.1504 27.4316V28.3398C37.1504 29.082 37.222 29.7396 37.3652 30.3125C37.5085 30.8789 37.7201 31.3574 38 31.748C38.2865 32.1322 38.638 32.4219 39.0547 32.6172C39.4714 32.8125 39.9564 32.9102 40.5098 32.9102C40.972 32.9102 41.3561 32.8711 41.6621 32.793C41.9746 32.7148 42.2253 32.6204 42.4141 32.5098C42.6094 32.3926 42.7591 32.2819 42.8633 32.1777V29.6582H40.1875V27.5684H45.793Z" fill="black"/>
<path d="M45.9998 4.1875C42.7888 4.1875 40.1873 6.78906 40.1873 10C40.1873 13.2109 42.7888 15.8125 45.9998 15.8125C49.2107 15.8125 51.8123 13.2109 51.8123 10C51.8123 6.78906 49.2107 4.1875 45.9998 4.1875ZM49.3748 10.6562C49.3748 10.8109 49.2482 10.9375 49.0935 10.9375H46.9373V13.0938C46.9373 13.2484 46.8107 13.375 46.656 13.375H45.3435C45.1888 13.375 45.0623 13.2484 45.0623 13.0938V10.9375H42.906C42.7513 10.9375 42.6248 10.8109 42.6248 10.6562V9.34375C42.6248 9.18906 42.7513 9.0625 42.906 9.0625H45.0623V6.90625C45.0623 6.75156 45.1888 6.625 45.3435 6.625H46.656C46.8107 6.625 46.9373 6.75156 46.9373 6.90625V9.0625H49.0935C49.2482 9.0625 49.3748 9.18906 49.3748 9.34375V10.6562Z" fill="#56876D"/>
</svg>
