<svg width="56" height="56" viewBox="0 0 56 56" fill="none" xmlns="http://www.w3.org/2000/svg">
<rect x="0.5" y="0.5" width="55" height="55" rx="9.5" stroke="black"/>
<path d="M29.627 20.7812V35H26.707V20.7812H29.627ZM34.002 20.7812V23.0762H22.4004V20.7812H34.002Z" fill="black"/>
<path d="M46 4.1875C42.7891 4.1875 40.1875 6.78906 40.1875 10C40.1875 13.2109 42.7891 15.8125 46 15.8125C49.2109 15.8125 51.8125 13.2109 51.8125 10C51.8125 6.78906 49.2109 4.1875 46 4.1875ZM49.375 10.6562C49.375 10.8109 49.2484 10.9375 49.0937 10.9375H46.9375V13.0938C46.9375 13.2484 46.8109 13.375 46.6562 13.375H45.3437C45.1891 13.375 45.0625 13.2484 45.0625 13.0938V10.9375H42.9062C42.7516 10.9375 42.625 10.8109 42.625 10.6562V9.34375C42.625 9.18906 42.7516 9.0625 42.9062 9.0625H45.0625V6.90625C45.0625 6.75156 45.1891 6.625 45.3437 6.625H46.6562C46.8109 6.625 46.9375 6.75156 46.9375 6.90625V9.0625H49.0937C49.2484 9.0625 49.375 9.18906 49.375 9.34375V10.6562Z" fill="#56876D"/>
<path d="M10 46.2996C12.797 43.055 20.394 38.5126 28.406 46.2996C36.418 54.0867 43.4737 47.797 46 43.6788" stroke="#56876D" stroke-width="2"/>
</svg>
